<svg width="31" height="30" viewBox="0 0 31 30" fill="none" xmlns="http://www.w3.org/2000/svg">
<path d="M22 12L16 15.75L10 12V10.5L16 14.25L22 10.5M22 9H10C9.1675 9 8.5 9.6675 8.5 10.5V19.5C8.5 19.8978 8.65804 20.2794 8.93934 20.5607C9.22064 20.842 9.60218 21 10 21H22C22.3978 21 22.7794 20.842 23.0607 20.5607C23.342 20.2794 23.5 19.8978 23.5 19.5V10.5C23.5 10.1022 23.342 9.72064 23.0607 9.43934C22.7794 9.15804 22.3978 9 22 9Z" fill="#1C1C65"/>
<circle cx="15.5" cy="15" r="14.5" stroke="#1C1C65"/>
</svg>
