<svg width="31" height="30" viewBox="0 0 31 30" fill="none" xmlns="http://www.w3.org/2000/svg">
<g clip-path="url(#clip0_114_34)">
<path d="M9.28004 2.88739C10.2187 3.20538 11.1118 3.64496 11.9363 4.19489C13.1008 3.89728 14.2981 3.74777 15.5 3.74989C16.7413 3.74989 17.9388 3.90489 19.0613 4.19364C19.8855 3.64424 20.7781 3.20509 21.7163 2.88739C22.5875 2.59114 23.8288 2.11114 24.5663 2.92739C25.0663 3.48239 25.1913 4.41239 25.28 5.12239C25.38 5.91489 25.4038 6.94739 25.1413 7.97239C26.145 9.26864 26.75 10.8149 26.75 12.4999C26.75 15.0524 25.3675 17.2686 23.3213 18.8036C22.3365 19.5331 21.2443 20.1049 20.0838 20.4986C20.3513 21.1111 20.5 21.7886 20.5 22.4999V26.2499C20.5 26.5814 20.3683 26.8994 20.1339 27.1338C19.8995 27.3682 19.5816 27.4999 19.25 27.4999H11.75C11.4185 27.4999 11.1006 27.3682 10.8662 27.1338C10.6317 26.8994 10.5 26.5814 10.5 26.2499V25.0111C9.30629 25.1574 8.30504 25.0274 7.45379 24.6661C6.56379 24.2886 5.94379 23.7036 5.47754 23.1436C5.03504 22.6136 4.55254 21.4186 3.85504 21.1861C3.69926 21.1343 3.55522 21.0522 3.43115 20.9447C3.30708 20.8371 3.2054 20.7062 3.13193 20.5594C2.98354 20.2629 2.95903 19.9195 3.06379 19.6049C3.16855 19.2903 3.394 19.0302 3.69054 18.8818C3.98709 18.7334 4.33043 18.7089 4.64504 18.8136C5.47754 19.0911 6.02004 19.6911 6.39129 20.1736C6.99129 20.9486 7.47879 21.9611 8.42879 22.3649C8.82004 22.5311 9.39379 22.6399 10.2913 22.5174L10.5 22.4749C10.5024 21.7946 10.6441 21.1221 10.9163 20.4986C9.75577 20.1049 8.66356 19.5331 7.67879 18.8036C5.63254 17.2686 4.25004 15.0536 4.25004 12.4999C4.25004 10.8174 4.85379 9.27239 5.85504 7.97739C5.59254 6.95239 5.61504 5.91739 5.71504 5.12364L5.72129 5.07614C5.81254 4.34864 5.91879 3.49239 6.42879 2.92739C7.16629 2.11114 8.40879 2.59239 9.27879 2.88864L9.28004 2.88739Z" fill="#0F103F"/>
</g>
<defs>
<clipPath id="clip0_114_34">
<rect width="30" height="30" fill="white" transform="translate(0.5)"/>
</clipPath>
</defs>
</svg>
