<svg width="31" height="30" viewBox="0 0 31 30" fill="none" xmlns="http://www.w3.org/2000/svg">
<path d="M15.5 20C16.8261 20 18.0979 19.4732 19.0355 18.5355C19.9732 17.5979 20.5 16.3261 20.5 15C20.5 13.6739 19.9732 12.4021 19.0355 11.4645C18.0979 10.5268 16.8261 10 15.5 10C14.1739 10 12.9021 10.5268 11.9645 11.4645C11.0268 12.4021 10.5 13.6739 10.5 15C10.5 16.3261 11.0268 17.5979 11.9645 18.5355C12.9021 19.4732 14.1739 20 15.5 20Z" stroke="#0F103F" stroke-width="1.5" stroke-linecap="round" stroke-linejoin="round"/>
<path d="M4.25 20V10C4.25 8.3424 4.90848 6.75269 6.08058 5.58058C7.25269 4.40848 8.8424 3.75 10.5 3.75H20.5C22.1576 3.75 23.7473 4.40848 24.9194 5.58058C26.0915 6.75269 26.75 8.3424 26.75 10V20C26.75 21.6576 26.0915 23.2473 24.9194 24.4194C23.7473 25.5915 22.1576 26.25 20.5 26.25H10.5C8.8424 26.25 7.25269 25.5915 6.08058 24.4194C4.90848 23.2473 4.25 21.6576 4.25 20Z" stroke="#0F103F" stroke-width="1.5"/>
<path d="M22.375 8.13661L22.3867 8.12378" stroke="#0F103F" stroke-width="1.5" stroke-linecap="round" stroke-linejoin="round"/>
</svg>
