<svg width="31" height="30" viewBox="0 0 31 30" fill="none" xmlns="http://www.w3.org/2000/svg">
<path d="M15.5012 11.9375C16.6475 10.7663 18.14 10 19.8762 10C21.6996 10 23.4483 10.7243 24.7376 12.0136C26.0269 13.303 26.7512 15.0516 26.7512 16.875V26.25H24.2512V16.875C24.2512 15.7147 23.7903 14.6019 22.9698 13.7814C22.1493 12.9609 21.0365 12.5 19.8762 12.5C18.7159 12.5 17.6031 12.9609 16.7826 13.7814C15.9622 14.6019 15.5012 15.7147 15.5012 16.875V26.25H13.0012V10.625H15.5012V11.9375ZM6.75122 8.125C6.25394 8.125 5.77703 7.92746 5.4254 7.57583C5.07376 7.22419 4.87622 6.74728 4.87622 6.25C4.87622 5.75272 5.07376 5.27581 5.4254 4.92417C5.77703 4.57254 6.25394 4.375 6.75122 4.375C7.2485 4.375 7.72542 4.57254 8.07705 4.92417C8.42868 5.27581 8.62622 5.75272 8.62622 6.25C8.62622 6.74728 8.42868 7.22419 8.07705 7.57583C7.72542 7.92746 7.2485 8.125 6.75122 8.125ZM5.50122 10.625H8.00122V26.25H5.50122V10.625Z" fill="#0F103F"/>
</svg>
