<svg width="31" height="30" viewBox="0 0 31 30" fill="none" xmlns="http://www.w3.org/2000/svg">
<circle cx="15.5" cy="15" r="14.5" stroke="#1C1C65"/>
<path d="M16 8C14.2767 8.00184 12.6246 8.62329 11.4061 9.72801C10.1875 10.8327 9.50204 12.3305 9.50001 13.8929C9.49794 15.1696 9.95795 16.4117 10.8095 17.4286C10.8095 17.4286 10.9867 17.6402 11.0157 17.6707L16 23L20.9867 17.668C21.0127 17.6396 21.1905 17.4286 21.1905 17.4286L21.1911 17.427C22.0422 16.4105 22.502 15.169 22.5 13.8929C22.498 12.3305 21.8125 10.8327 20.5939 9.72801C19.3754 8.62329 17.7233 8.00184 16 8ZM16 16.0357C15.5325 16.0357 15.0755 15.91 14.6868 15.6746C14.2981 15.4391 13.9952 15.1044 13.8163 14.7129C13.6374 14.3213 13.5906 13.8905 13.6818 13.4748C13.773 13.0591 13.9981 12.6773 14.3287 12.3776C14.6592 12.0779 15.0804 11.8739 15.5389 11.7912C15.9974 11.7085 16.4726 11.7509 16.9045 11.9131C17.3364 12.0753 17.7056 12.35 17.9653 12.7023C18.225 13.0547 18.3636 13.469 18.3636 13.8929C18.3629 14.461 18.1136 15.0056 17.6705 15.4073C17.2274 15.809 16.6266 16.035 16 16.0357Z" fill="#1C1C65"/>
</svg>
