<svg width="31" height="30" viewBox="0 0 31 30" fill="none" xmlns="http://www.w3.org/2000/svg">
<path d="M6.66507 4.28564C5.59947 4.28564 4.57751 4.70895 3.82402 5.46245C3.07053 6.21594 2.64722 7.2379 2.64722 8.3035V20.6249C2.64722 21.6905 3.07053 22.7125 3.82402 23.466C4.57751 24.2195 5.59947 24.6428 6.66507 24.6428H24.3394C25.405 24.6428 26.4269 24.2195 27.1804 23.466C27.9339 22.7125 28.3572 21.6905 28.3572 20.6249V8.3035C28.3572 7.2379 27.9339 6.21594 27.1804 5.46245C26.4269 4.70895 25.405 4.28564 24.3394 4.28564H6.66507ZM4.25436 8.3035C4.25436 7.66414 4.50835 7.05097 4.96044 6.59887C5.41254 6.14677 6.02571 5.89279 6.66507 5.89279H24.3394C24.9787 5.89279 25.5919 6.14677 26.044 6.59887C26.4961 7.05097 26.7501 7.66414 26.7501 8.3035V9.13815L15.5001 14.9003L4.25436 9.14029V8.3035ZM4.25436 10.9467L15.1336 16.5181C15.2471 16.5763 15.3727 16.6066 15.5001 16.6066C15.6275 16.6066 15.7531 16.5763 15.8665 16.5181L26.7501 10.9446V20.626C26.7501 21.2654 26.4961 21.8785 26.044 22.3306C25.5919 22.7827 24.9787 23.0367 24.3394 23.0367H6.66615C6.02678 23.0367 5.41361 22.7827 4.96151 22.3306C4.50942 21.8785 4.25543 21.2654 4.25543 20.626L4.25436 10.9467Z" fill="#0F103F"/>
</svg>
