<svg width="31" height="30" viewBox="0 0 31 30" fill="none" xmlns="http://www.w3.org/2000/svg">
<path d="M22.5597 23C14.5619 23.0112 8.49157 16.8687 8.50001 8.94031C8.50001 8.42187 8.92001 8 9.43751 8H11.9125C12.3766 8 12.7713 8.34125 12.8397 8.80062C13.0029 9.90224 13.3234 10.9747 13.7913 11.9853L13.8878 12.1934C13.9527 12.3335 13.9666 12.4918 13.9273 12.641C13.8879 12.7903 13.7977 12.9211 13.6722 13.0109C12.9053 13.5584 12.6128 14.66 13.21 15.5187C13.9619 16.6 14.9003 17.5387 15.9813 18.2909C16.8409 18.8872 17.9425 18.5947 18.4891 17.8287C18.5788 17.7029 18.7097 17.6123 18.8592 17.5728C19.0087 17.5332 19.1672 17.5472 19.3075 17.6122L19.5147 17.7078C20.5253 18.1766 21.5978 18.4972 22.6994 18.6603C23.1588 18.7287 23.5 19.1234 23.5 19.5884V22.0625C23.5 22.1857 23.4757 22.3077 23.4285 22.4215C23.3814 22.5353 23.3122 22.6387 23.2251 22.7257C23.1379 22.8128 23.0345 22.8818 22.9206 22.9289C22.8068 22.9759 22.6848 23.0001 22.5616 23H22.5597Z" fill="#1C1C65"/>
<circle cx="15.5" cy="15" r="14.5" stroke="#1C1C65"/>
</svg>
