<svg width="56" height="57" viewBox="0 0 56 57" fill="none" xmlns="http://www.w3.org/2000/svg">
<rect y="0.532471" width="56" height="56" rx="28" fill="#0F103F"/>
<path d="M26.4962 20.5325C19.6247 21.8658 19 28.5325 19 28.5325M19 28.5325V32.7844C19 33.4796 19 33.8272 19.0574 34.1163C19.2937 35.3075 20.2249 36.2388 21.4162 36.4751C21.7053 36.5325 22.0529 36.5325 22.7481 36.5325V36.5325C23.4434 36.5325 23.791 36.5325 24.0801 36.4751C25.2713 36.2388 26.2025 35.3075 26.4389 34.1163C26.4962 33.8272 26.4962 33.4796 26.4962 32.7844V32.5325C26.4962 31.6025 26.4962 31.1375 26.394 30.756C26.1166 29.7207 25.308 28.9121 24.2727 28.6347C23.8912 28.5325 23.4262 28.5325 22.4962 28.5325H19Z" stroke="white" stroke-width="1.5"/>
<path d="M36.9999 20.5325C30.1283 21.8658 29.5037 28.5325 29.5037 28.5325M29.5037 28.5325V32.7844C29.5037 33.4796 29.5037 33.8272 29.561 34.1163C29.7974 35.3075 30.7286 36.2388 31.9198 36.4751C32.2089 36.5325 32.5565 36.5325 33.2518 36.5325V36.5325C33.947 36.5325 34.2946 36.5325 34.5837 36.4751C35.775 36.2388 36.7062 35.3075 36.9425 34.1163C36.9999 33.8272 36.9999 33.4796 36.9999 32.7844V32.5325C36.9999 31.6025 36.9999 31.1375 36.8977 30.756C36.6203 29.7207 35.8116 28.9121 34.7764 28.6347C34.3949 28.5325 33.9299 28.5325 32.9999 28.5325H29.5037Z" stroke="white" stroke-width="1.5"/>
</svg>
