<svg width="613" height="662" viewBox="0 0 613 662" fill="none" xmlns="http://www.w3.org/2000/svg">
<path fill-rule="evenodd" clip-rule="evenodd" d="M240.421 85.1806C282.244 57.0236 314.485 0.297405 363.651 0.507164C409.582 0.703125 445.884 49.7557 480.425 86.2046C515.694 123.421 546.192 165.917 567.169 215.267C589.249 267.214 627.652 330.064 605.303 379.998C579.24 438.232 485.629 411.602 454.743 466.461C425.495 518.41 494.515 615.733 451.654 652.906C410.744 688.385 355.176 605.756 303.357 597.753C265.968 591.978 230.517 607.82 193.409 613.02C132.722 621.524 53.5504 693.965 13.6494 638.352C-29.0387 578.854 42.3443 494.317 55.2307 420.428C61.8863 382.265 83.8528 343.552 71.5228 306.512C45.5818 228.586 -0.859568 210.316 35.4838 140.836C96.787 95.2674 88.5526 141.866 159.802 137.745C191.432 135.916 213.428 103.353 240.421 85.1806Z" fill="url(#paint0_linear_114_100)" fill-opacity="0.5"/>
<defs>
<linearGradient id="paint0_linear_114_100" x1="149.19" y1="157.519" x2="707.234" y2="514.46" gradientUnits="userSpaceOnUse">
<stop stop-color="#3F8EFA" stop-opacity="0.53"/>
<stop offset="1" stop-color="#FF27A1" stop-opacity="0.09"/>
</linearGradient>
</defs>
</svg>
