<svg width="717" height="757" viewBox="0 0 717 757" fill="none" xmlns="http://www.w3.org/2000/svg">
<path fill-rule="evenodd" clip-rule="evenodd" d="M181.076 93.7297C212.222 45.1842 249.999 89.2677 304.18 69.6879C358.111 50.1989 385.442 -21.7813 436.18 8.18805C486.021 37.6269 530.525 85.9723 569.102 129.526C601.735 166.369 661.704 180.497 677.316 226.993C693.183 274.248 641.917 320.623 649.724 369.636C659.757 432.617 722.244 479.746 716.18 542.688C710.54 601.237 654.135 579.242 601.68 603.517C549.329 627.744 503.71 659.639 447.296 672.781C387.304 686.755 345.699 769.95 285.066 754.488C224.945 739.157 212.375 654.646 175.683 603.517C146.904 563.416 118.424 525.344 91.1181 484.233C59.4323 436.529 -7.76188 396.051 0.999138 340.523C10.3306 281.38 97.1686 273.005 131.971 225.308C159.717 187.283 155.625 133.398 181.076 93.7297Z" fill="url(#paint0_linear_114_101)" fill-opacity="0.5"/>
<defs>
<linearGradient id="paint0_linear_114_101" x1="160.913" y1="275.787" x2="845.054" y2="295.076" gradientUnits="userSpaceOnUse">
<stop stop-color="#3F8EFA" stop-opacity="0.53"/>
<stop offset="1" stop-color="#FF27A1" stop-opacity="0.09"/>
</linearGradient>
</defs>
</svg>
